<?xml version="1.0" encoding="UTF-8"?>
<svg xmlns="http://www.w3.org/2000/svg" viewBox="0 0 200 128">
  <defs>
    <style>
      .cls-1 {
        fill: #f5afcb;
      }

      .cls-2 {
        fill: #ff5805;
      }

      .cls-3 {
        fill: #fff;
      }

      .cls-4 {
        fill: #ff9b00;
      }

      .cls-5 {
        fill: #009a46;
      }

      .cls-6 {
        fill: #2a3362;
      }
    </style>
  </defs>
  <g id="BG">
    <rect class="cls-3" x="0" width="200" height="128" rx="4" ry="4"/>
  </g>
  <g id="LOGOS">
    <g>
      <rect class="cls-6" x="67.42" y="56.94" width="2.95" height="15.19"/>
      <path class="cls-6" d="m81.8,66.74c0,2.1-1.35,3.04-3.14,3.04s-3-.94-3-2.93v-5.41h-2.95v6.1c0,3.04,1.9,4.81,5.07,4.81,1.99,0,3.1-.73,3.85-1.56h.17l.26,1.35h2.72v-10.7h-2.97v5.31Z"/>
      <path class="cls-6" d="m110.76,70.01c-2.16,0-3.38-.98-3.57-2.42h9.37c.04-.3.06-.6.06-.9-.02-3.85-2.93-5.48-6.05-5.48-3.62,0-6.33,2.16-6.33,5.65s2.61,5.48,6.53,5.48c3.27,0,5.46-1.45,5.91-3.68h-2.92c-.36.88-1.41,1.35-3,1.35Zm-.18-6.46c1.88,0,2.97.83,3.15,2.02h-6.47c.28-1.13,1.37-2.02,3.32-2.02h0Z"/>
      <path class="cls-6" d="m121.64,62.97h-.18l-.28-1.54h-2.68v10.7h2.95v-4.6c0-2.08,1.2-3.23,3.42-3.23.4,0,.81.03,1.21.11v-2.97h-.41c-1.97,0-3.19.41-4.02,1.54Z"/>
      <polygon class="cls-6" points="140.57 68.79 140.4 68.79 137.87 62.09 134.83 62.09 132.35 68.77 132.16 68.77 129.81 61.43 126.88 61.43 130.49 72.13 133.7 72.13 136.27 65.3 136.44 65.3 138.97 72.13 142.2 72.13 145.81 61.43 142.88 61.43 140.57 68.79"/>
      <path class="cls-6" d="m157.56,69.01v-3.58c0-2.91-2.46-4.22-5.52-4.22-3.25,0-5.28,1.54-5.56,3.85h2.95c.21-1.01,1.07-1.56,2.61-1.56s2.57.58,2.57,1.75v.27l-4.81.37c-2.22.17-3.85,1.16-3.85,3.25s1.86,3.19,4.6,3.19c2.21,0,3.56-.62,4.38-1.54h.15c.46,1.04,1.4,1.33,2.43,1.33h1.24v-2.18h-.28c-.62,0-.9-.3-.9-.93Zm-2.95-1.13c0,1.69-2.02,2.25-3.74,2.25-1.18,0-1.95-.3-1.95-1.11,0-.73.66-1.09,1.65-1.18l4.04-.3v.34Z"/>
      <polygon class="cls-6" points="168.48 61.43 165.03 69.18 164.84 69.18 161.35 61.43 158.16 61.43 163.15 72.13 166.68 72.13 171.64 61.43 168.48 61.43"/>
      <path class="cls-6" d="m181.08,68.66c-.37.88-1.41,1.35-3,1.35-2.16,0-3.38-.98-3.57-2.42h9.37c.04-.3.06-.6.06-.9-.02-3.85-2.93-5.48-6.05-5.48-3.62,0-6.33,2.16-6.33,5.65s2.61,5.48,6.52,5.48c3.27,0,5.46-1.45,5.91-3.68h-2.92Zm-3.19-5.11c1.88,0,2.97.83,3.15,2.02h-6.47c.28-1.13,1.37-2.02,3.32-2.02h0Z"/>
      <path class="cls-6" d="m62.62,60.64c0-.94.66-1.35,1.52-1.35.4,0,.79.06,1.18.17l.49-2.14c-.71-.25-1.47-.38-2.22-.38-2.18,0-3.94,1.16-3.94,3.55v.94h-2.55v2.34h2.55v8.36h2.97v-8.36h3.33v-2.34h-3.33v-.79Z"/>
      <path class="cls-6" d="m91.28,58.41h-2.75l-.15,3.02h-2.32v2.34h2.27v5.27c0,1.8.92,3.3,3.67,3.3.71,0,1.42-.08,2.12-.23v-2.25c-.4.09-.81.14-1.22.15-1.48,0-1.6-.83-1.6-1.48v-4.76h2.93v-2.34h-2.93v-3.02Z"/>
      <path class="cls-6" d="m100.55,58.41h-2.74l-.15,3.02h-2.33v2.34h2.27v5.27c0,1.8.92,3.3,3.67,3.3.71,0,1.42-.08,2.11-.24v-2.25c-.4.09-.81.14-1.22.15-1.48,0-1.6-.83-1.6-1.48v-4.76h2.94v-2.34h-2.94v-3.02Z"/>
      <path class="cls-5" d="m16,56.53c0-1.72.5-3.18,1.56-4.24l1.83,1.83c-2.04,2.03-.26,8.35,5.55,14.16,5.81,5.81,12.13,7.59,14.17,5.56l1.83,1.83c-3.44,3.44-11.27,1-17.82-5.56-4.55-4.55-7.11-9.71-7.11-13.59Z"/>
      <path class="cls-2" d="m27.56,77.26c-1.72,0-3.18-.5-4.24-1.56l1.83-1.83c2.04,2.04,8.36.25,14.17-5.56,5.81-5.81,7.59-12.13,5.55-14.17l1.83-1.83c3.44,3.44,1,11.27-5.56,17.82-4.55,4.55-9.71,7.12-13.59,7.12Z"/>
      <path class="cls-1" d="m41.75,67.52c-1.11-3.2-3.38-6.63-6.4-9.64-6.56-6.56-14.39-9-17.82-5.56h0c-.24.25-.03.85.47,1.36s1.11.71,1.36.47c2.04-2.04,8.36-.25,14.17,5.56,2.75,2.75,4.8,5.82,5.79,8.66.87,2.49.78,4.5-.23,5.51h0c-.25.24-.03.85.47,1.36s1.11.72,1.36.47c1.76-1.76,2.06-4.67.84-8.18Z"/>
      <path class="cls-4" d="m46.7,52.32c-1.76-1.76-4.67-2.06-8.19-.84-3.2,1.11-6.63,3.38-9.64,6.4-6.56,6.56-9,14.39-5.56,17.83h0c.25.24.85.03,1.36-.47s.72-1.11.47-1.36c-2.04-2.04-.25-8.36,5.56-14.17,2.75-2.75,5.82-4.8,8.66-5.79,2.49-.86,4.5-.78,5.51.23h0c.24.24.85.03,1.36-.47s.72-1.11.47-1.35Z"/>
    </g>
  </g>
</svg>